<?xml version="1.0" standalone="no"?><!-- Generator: Gravit.io --><svg xmlns="http://www.w3.org/2000/svg" xmlns:xlink="http://www.w3.org/1999/xlink" style="isolation:isolate" viewBox="0 0 600 330" width="600" height="330"><defs><clipPath id="_clipPath_MG1oQLjgsRry29DcoHKK1qnx37PAPIvZ"><rect width="600" height="330"/></clipPath></defs><g clip-path="url(#_clipPath_MG1oQLjgsRry29DcoHKK1qnx37PAPIvZ)"><g opacity="0.23"><path d=" M 36.601 161.45 C 102.396 105.753 209.667 -8.463 311.071 8.1 C 409.884 15.317 612.573 35.132 585.542 161.45 C 556.64 226.837 451.841 262.734 344.341 305.443 C 210.503 358.617 -45.041 256.392 36.601 161.45 Z " fill="rgb(0,121,97)"/></g><g><g><g><clipPath id="_clipPath_7c0cdEnfXbQqoodbFErEo70EghEFpRst"><path d=" M 63.969 330 L 536.019 330 L 536.019 0 L 63.969 0 L 63.969 330 Z " fill="rgb(255,255,255)"/></clipPath><g clip-path="url(#_clipPath_7c0cdEnfXbQqoodbFErEo70EghEFpRst)"><g><path d=" M 431.939 72.505 C 420.808 72.505 411.786 63.481 411.786 52.351 C 411.786 41.22 420.808 32.196 431.939 32.196 C 443.07 32.196 452.094 41.22 452.094 52.351 C 452.094 63.481 443.07 72.505 431.939 72.505 Z  M 458.169 45.555 C 457.531 43.087 456.553 40.755 455.29 38.612 L 458.221 34.203 L 454.154 30.136 L 450.087 26.07 L 445.678 29 C 443.534 27.737 441.204 26.758 438.735 26.121 L 437.691 20.934 L 426.188 20.934 L 425.144 26.121 C 422.675 26.758 420.345 27.737 418.201 29 L 413.792 26.07 L 409.726 30.136 L 405.658 34.203 L 408.59 38.612 C 407.326 40.755 406.348 43.087 405.71 45.555 L 400.524 46.599 L 400.524 58.102 L 405.71 59.146 C 406.348 61.615 407.326 63.946 408.59 66.089 L 405.658 70.497 L 409.726 74.565 L 413.792 78.632 L 418.201 75.7 C 420.345 76.964 422.675 77.942 425.144 78.58 L 426.188 83.766 L 437.691 83.766 L 438.735 78.58 C 441.204 77.942 443.534 76.964 445.678 75.7 L 450.087 78.632 L 454.154 74.565 L 458.221 70.497 L 455.29 66.089 C 456.553 63.946 457.531 61.615 458.169 59.146 L 463.355 58.102 L 463.355 46.599 L 458.169 45.555 Z " fill="rgb(5,204,164)"/><path d=" M 453.992 106.824 C 448.889 106.824 444.751 102.687 444.751 97.584 C 444.751 92.482 448.889 88.344 453.992 88.344 C 459.095 88.344 463.232 92.482 463.232 97.584 C 463.232 102.687 459.095 106.824 453.992 106.824 Z  M 466.016 94.469 C 465.724 93.337 465.275 92.269 464.696 91.286 L 466.04 89.265 L 464.176 87.4 L 462.311 85.536 L 460.29 86.879 C 459.307 86.3 458.239 85.852 457.107 85.56 L 456.629 83.182 L 451.355 83.182 L 450.875 85.56 C 449.744 85.852 448.676 86.3 447.694 86.879 L 445.672 85.536 L 443.808 87.4 L 441.943 89.265 L 443.287 91.286 C 442.708 92.269 442.259 93.337 441.966 94.469 L 439.59 94.947 L 439.59 100.221 L 441.966 100.7 C 442.259 101.831 442.708 102.9 443.287 103.882 L 441.943 105.904 L 443.808 107.768 L 445.672 109.633 L 447.694 108.289 C 448.676 108.868 449.744 109.317 450.875 109.609 L 451.355 111.986 L 456.629 111.986 L 457.107 109.609 C 458.239 109.317 459.307 108.868 460.29 108.289 L 462.311 109.633 L 464.176 107.768 L 466.04 105.904 L 464.696 103.882 C 465.275 102.9 465.724 101.831 466.016 100.7 L 468.394 100.221 L 468.394 94.947 L 466.016 94.469 Z " fill="rgb(5,204,164)"/><path d=" M 298.887 276.141 L 327.182 276.141 L 327.182 190.199 L 298.887 190.199 L 298.887 276.141 Z " fill="rgb(1,157,126)"/><path d=" M 203.297 233.17 L 422.771 233.17 C 429.635 233.17 435.197 227.606 435.197 220.743 L 435.197 73.236 C 435.197 66.373 429.635 60.81 422.771 60.81 L 203.297 60.81 C 196.434 60.81 190.871 66.373 190.871 73.236 L 190.871 220.743 C 190.871 227.606 196.434 233.17 203.297 233.17 Z " fill="rgb(2,206,165)"/><path d=" M 200.439 206.159 L 425.629 206.159 L 425.629 42.465 L 200.439 42.465 L 200.439 206.159 Z " fill="rgb(255,255,255)"/></g></g></g><g><clipPath id="_clipPath_fIz4UCzKQ5H9qYZgqUdKerGzrBHHvaHP"><path d=" M 200.439 62.236 L 425.629 62.236 L 425.629 42.465 L 200.439 42.465 L 200.439 62.236 Z " fill="rgb(255,255,255)"/></clipPath><g clip-path="url(#_clipPath_fIz4UCzKQ5H9qYZgqUdKerGzrBHHvaHP)"><g><linearGradient id="_lgradient_1" x1="0" y1="0.4999744369240915" x2="1" y2="0.4999744369240915" gradientTransform="matrix(225.19,0,0,-19.771,200.439,62.236)" gradientUnits="userSpaceOnUse"><stop offset="1.7391304347826086%" stop-opacity="1" style="stop-color:rgb(2,227,182)"/><stop offset="99.1304347826087%" stop-opacity="1" style="stop-color:rgb(0,121,97)"/></linearGradient><path d=" M 200.439 62.236 L 425.629 62.236 L 425.629 42.464 L 200.439 42.464 L 200.439 62.236 Z " fill="url(#_lgradient_1)"/></g></g></g><g><clipPath id="_clipPath_GQKYBq1rQW3alm1u8XJ2lJPEsOYLjTnR"><path d=" M 63.969 330 L 63.969 0 L 536.031 0 L 536.031 330 L 63.969 330 Z " fill="rgb(255,255,255)"/></clipPath><g clip-path="url(#_clipPath_GQKYBq1rQW3alm1u8XJ2lJPEsOYLjTnR)"><g><path d=" M 305.153 218.519 C 305.153 222.871 308.681 226.401 313.034 226.401 C 317.387 226.401 320.915 222.871 320.915 218.519 C 320.915 214.166 317.387 210.638 313.034 210.638 C 308.681 210.638 305.153 214.166 305.153 218.519 Z " fill="rgb(1,172,138)"/><path d=" M 276.447 82.157 L 343.705 82.157 C 345.216 82.157 346.44 80.932 346.44 79.422 L 346.44 79.033 C 346.44 77.523 345.216 76.298 343.705 76.298 L 276.447 76.298 C 274.937 76.298 273.712 77.523 273.712 79.033 L 273.712 79.422 C 273.712 80.932 274.937 82.157 276.447 82.157 Z " fill="rgb(223,225,232)"/><path d=" M 276.447 92.723 L 343.705 92.723 C 345.216 92.723 346.44 91.499 346.44 89.988 L 346.44 89.599 C 346.44 88.089 345.216 86.864 343.705 86.864 L 276.447 86.864 C 274.937 86.864 273.712 88.089 273.712 89.599 L 273.712 89.988 C 273.712 91.499 274.937 92.723 276.447 92.723 Z " fill="rgb(223,225,232)"/><path d=" M 276.447 103.29 L 343.705 103.29 C 345.216 103.29 346.44 102.065 346.44 100.555 L 346.44 100.166 C 346.44 98.656 345.216 97.431 343.705 97.431 L 276.447 97.431 C 274.937 97.431 273.712 98.656 273.712 100.166 L 273.712 100.555 C 273.712 102.065 274.937 103.29 276.447 103.29 Z " fill="rgb(223,225,232)"/><path d=" M 223.63 119.364 C 217.474 119.364 212.465 124.373 212.465 130.53 L 212.465 181.876 C 212.465 188.033 217.474 193.041 223.63 193.041 L 308.042 193.041 C 314.198 193.041 319.207 188.033 319.207 181.876 L 319.207 130.53 C 319.207 124.373 314.198 119.364 308.042 119.364 L 223.63 119.364 Z  M 308.042 194.642 L 223.63 194.642 C 216.592 194.642 210.865 188.916 210.865 181.876 L 210.865 130.53 C 210.865 123.49 216.592 117.764 223.63 117.764 L 308.042 117.764 C 315.081 117.764 320.807 123.49 320.807 130.53 L 320.807 181.876 C 320.807 188.916 315.081 194.642 308.042 194.642 Z " fill="rgb(223,225,232)"/><path d=" M 230.307 137.116 L 301.365 137.116 C 304.479 137.116 307.003 134.592 307.003 131.478 L 307.003 130.405 C 307.003 127.292 304.479 124.768 301.365 124.768 L 230.307 124.768 C 227.193 124.768 224.669 127.292 224.669 130.405 L 224.669 131.478 C 224.669 134.592 227.193 137.116 230.307 137.116 Z " fill="rgb(223,225,232)"/><path d=" M 249.387 280.957 L 376.681 280.957 L 376.681 274.469 L 249.387 274.469 L 249.387 280.957 Z " fill="rgb(5,204,164)"/><path d=" M 400.304 134.634 C 400.304 141.381 396.659 147.275 391.23 150.456 C 390.139 151.094 388.976 151.624 387.756 152.029 C 387.646 152.066 387.535 152.102 387.424 152.136 C 385.704 152.67 383.876 152.957 381.981 152.957 C 379.055 152.957 376.29 152.272 373.836 151.053 C 367.804 148.054 363.657 141.828 363.657 134.634 C 363.657 124.515 371.861 116.311 381.981 116.311 C 392.101 116.311 400.304 124.515 400.304 134.634 Z " fill="rgb(238,240,247)"/><path d=" M 377.604 132.701 C 377.604 132.701 376.353 124.604 383.058 124.753 C 389.764 124.902 389.674 128.906 389.554 132.879 C 389.435 136.853 386.865 136.554 389.764 142.082 C 392.661 147.609 387.254 147.609 387.254 147.609 L 383.058 141.842 L 377.604 132.701 Z " fill="rgb(60,65,69)"/><path d=" M 382.324 125.53 C 382.324 125.53 377.782 126.247 377.604 132.701 C 377.425 139.154 378.829 140.528 382.802 139.184 C 386.776 137.84 388.031 131.087 388.12 130.041 C 388.21 128.995 388.449 124.753 382.324 125.53 Z " fill="rgb(238,168,134)"/><path d=" M 390.299 147.976 C 390.313 149.909 389.279 151.202 387.756 152.029 C 387.646 152.066 387.535 152.102 387.424 152.136 C 385.704 152.67 383.876 152.957 381.981 152.957 C 379.055 152.957 376.29 152.272 373.836 151.053 C 373.283 149.951 374.084 148.386 375.709 145.985 C 376.825 144.335 377.919 142.65 379.792 141.832 C 382.553 141.391 385.477 141.365 387.536 142.529 C 389.179 143.457 390.273 145.142 390.299 147.976 Z " fill="rgb(229,83,83)"/><path d=" M 376.598 145.888 L 374.51 149.179 C 374.515 149.161 374.654 148.663 374.891 147.219 C 374.935 146.946 374.984 146.638 375.035 146.292 C 375.05 146.191 375.072 146.089 375.101 145.989 L 375.101 145.988 C 375.995 143.929 378.782 142.396 378.883 142.345 L 376.598 145.888 Z " fill="rgb(229,83,83)"/><path d=" M 391.23 150.456 C 390.139 151.094 388.976 151.624 387.756 152.029 C 387.646 152.066 387.535 152.102 387.424 152.136 C 386.961 150.94 386.56 149.906 386.472 149.638 C 386.447 149.561 386.387 149.414 386.305 149.218 C 385.929 148.303 385.086 146.269 385.076 144.677 C 385.07 143.651 385.408 142.809 386.441 142.57 C 386.848 142.476 387.211 142.47 387.536 142.529 C 388.69 142.738 389.363 143.774 389.738 144.692 C 389.745 144.709 389.75 144.723 389.755 144.739 C 390.069 145.52 390.167 146.202 390.167 146.202 C 390.167 146.202 390.185 146.275 390.219 146.404 C 390.283 146.66 390.407 147.146 390.568 147.784 C 390.752 148.516 390.983 149.445 391.23 150.456" fill="rgb(238,168,134)"/><path d=" M 385.358 136.277 C 384.963 137.02 384.548 141.635 384.548 141.635 C 384.548 141.635 378.993 143.734 379.562 142.546 C 379.82 142.007 379.895 141.308 379.901 140.706 C 379.906 140.23 379.866 139.815 379.839 139.584 C 379.824 139.463 379.814 139.393 379.814 139.393 C 379.814 139.393 385.751 135.533 385.358 136.277" fill="rgb(238,168,134)"/><path d=" M 380.472 130.161 C 380.472 130.161 382.802 133.955 384.924 135.449 C 387.046 136.943 385.97 138.138 385.97 138.138 C 385.97 138.138 391.504 126.485 386.242 125.679 C 380.98 124.873 377.753 124.813 377.604 132.701 C 377.604 132.701 379.994 130.101 380.472 130.161" fill="rgb(60,65,69)"/><path d=" M 383.006 139.109 C 382.154 140.367 379.901 140.706 379.901 140.706 C 379.901 140.706 379.901 140.706 379.901 140.706 C 379.906 140.23 379.866 139.815 379.839 139.584 C 381.285 139.864 383.006 139.109 383.006 139.109 Z " fill="rgb(167,120,96)"/><path d=" M 375.111 145.964 C 375.11 145.964 375.11 145.964 375.11 145.964 C 375.11 145.964 374.989 146.215 374.891 147.219 L 375.709 145.985 C 375.709 145.985 377.169 143.89 377.671 143.345 C 378.171 142.8 378.896 142.322 378.896 142.322 C 378.896 142.322 375.984 143.705 375.111 145.964" fill="rgb(189,68,68)"/><path d=" M 386.163 149.089 C 386.163 149.089 389.728 147.69 390.783 147.609 C 390.783 147.609 390.066 141.884 386.564 142.491 C 383.062 143.097 386.163 149.089 386.163 149.089" fill="rgb(229,83,83)"/><path d=" M 379.792 141.832 C 379.792 141.832 377.174 145.856 378.06 146.207 C 378.947 146.559 383.742 145.738 385.781 141.916 C 385.781 141.916 382.732 140.352 379.792 141.832" fill="rgb(238,168,134)"/><path d=" M 187.053 232.886 L 158.5 233.103 L 158.479 230.487 L 187.033 230.271 L 187.053 232.886 Z " fill="rgb(50,54,87)"/><path d=" M 195.412 205.58 L 187.062 232.886 L 184.561 232.121 L 192.912 204.816 L 195.412 205.58 Z " fill="rgb(50,54,87)"/><path d=" M 236.132 304.94 L 238.36 304.94 L 238.36 236.297 L 236.132 236.297 L 236.132 304.94 Z " fill="rgb(112,104,101)"/><path d=" M 152.541 236.297 L 250.468 236.297 L 250.468 232.394 L 152.541 232.394 L 152.541 236.297 Z " fill="rgb(181,144,116)"/><path d=" M 165.07 304.941 L 167.299 304.941 L 167.299 236.297 L 165.07 236.297 L 165.07 304.941 Z " fill="rgb(112,104,101)"/><path d=" M 120.31 293.677 L 122.989 293.677 L 122.989 259.869 L 120.31 259.869 L 120.31 293.677 Z " fill="rgb(145,135,131)"/><path d=" M 155.27 289.689 C 155.27 289.689 155.297 291.184 155.781 292.924 C 156.137 294.2 156.851 299.142 157.763 299.833 C 158.675 300.524 161.616 302.355 161.184 304.237 C 160.752 306.119 160.387 307.431 157.211 306.317 C 154.036 305.202 151.912 304.565 151.302 301.777 C 150.692 298.99 148.954 296.453 148.954 296.453 L 146.659 302.162 L 145.448 301.675 C 145.448 301.675 147.279 295.508 147.121 294.958 C 146.964 294.408 147.961 289.509 151.802 288.295 C 155.642 287.082 155.27 289.689 155.27 289.689" fill="rgb(29,59,84)"/><path d=" M 176.483 291.491 C 176.483 291.491 177.066 292.867 178.164 294.3 C 178.97 295.351 181.476 299.669 182.58 299.97 C 183.684 300.271 187.096 300.874 187.397 302.781 C 187.699 304.687 187.849 306.042 184.487 306.193 C 181.125 306.343 178.917 306.544 177.311 304.186 C 175.706 301.827 173.147 300.121 173.147 300.121 L 173.147 306.274 L 171.842 306.274 C 171.842 306.274 171.24 299.871 170.889 299.419 C 170.537 298.967 169.634 294.05 172.745 291.491 C 175.857 288.931 176.483 291.491 176.483 291.491 Z " fill="rgb(29,59,84)"/><path d=" M 142.298 207.873 C 142.298 207.873 143.045 205.223 143.119 204.877 C 143.191 204.532 143.898 203.846 144.779 203.129 C 145.66 202.411 147.17 201.837 147.357 201.895 C 147.544 201.953 147.76 201.925 148.069 202.322 C 148.377 202.718 148.419 203.224 148.419 203.224 C 148.419 203.224 149.03 203.534 149.034 204.161 C 149.034 204.161 149.596 204.479 149.485 205.191 C 149.485 205.191 150.024 205.518 149.901 206.028 C 149.901 206.028 149.193 206.717 149.004 207.047 C 148.816 207.378 147.246 208.71 145.544 209.755 C 145.544 209.755 143.371 211.36 142.298 207.873" fill="rgb(238,168,134)"/><path d=" M 145.55 205.773 C 145.55 205.773 145.872 206.888 145.804 207.248 C 145.736 207.606 148.352 207.658 148.352 207.658 C 148.352 207.658 146.916 205.418 145.55 205.773 Z " fill="rgb(207,140,108)"/><path d=" M 116.103 212.429 C 117.159 210.719 118.568 209.949 123.043 213.044 C 127.517 216.138 126.466 215.533 127.537 216.514 C 128.609 217.494 133.304 219.948 133.304 219.948 C 133.304 219.948 136.046 217.222 137.362 215.285 C 138.844 213.102 141.939 207.27 141.939 207.27 L 146.278 210.5 C 146.278 210.5 137.848 225.784 136.087 226.914 C 134.327 228.043 129.022 226.153 126.26 224.99 C 123.498 223.826 120.575 222.32 119.313 222.007 C 118.052 221.695 113.349 216.889 116.103 212.429 Z " fill="rgb(29,59,84)"/><path d=" M 146.59 204.421 L 145.781 204.243 L 147.891 194.667 L 148.702 194.845 L 146.59 204.421 Z " fill="rgb(235,71,71)"/><path d=" M 147.119 202.074 C 147.119 202.074 144.932 203.947 145.19 204.336 C 145.447 204.725 145.779 204.712 145.779 204.712 L 145.228 205.892 C 145.228 205.892 145.304 206.877 146.356 206.507 C 146.356 206.507 146.332 207.436 147.305 206.956 C 147.305 206.956 147.562 207.576 148.053 207.433 C 148.543 207.291 149.901 206.028 149.901 206.028 C 149.901 206.028 150.067 205.633 149.485 205.191 C 149.485 205.191 149.632 204.515 149.034 204.161 C 149.034 204.161 149.067 203.6 148.419 203.224 C 148.419 203.224 148.394 201.97 147.357 201.895 C 147.357 201.895 147.211 201.994 147.119 202.074" fill="rgb(219,156,124)"/><path d=" M 143.149 204.906 C 143.149 204.906 144.614 203.581 145.732 203.207 C 145.985 203.123 146.245 203.088 146.419 203.291 C 146.592 203.495 146.519 204.004 145.913 204.61 C 145.307 205.217 144.803 206.278 144.803 206.278 C 144.803 206.278 143.998 206.719 143.149 204.906 Z " fill="rgb(238,168,134)"/><path d=" M 136.962 221.712 C 136.962 221.712 137.843 218.519 136.805 216.047 C 136.805 216.047 137.2 218.606 136.079 220.425 C 135.268 221.744 136.962 221.712 136.962 221.712 Z " fill="rgb(21,44,61)"/><path d=" M 152.949 222.206 C 152.949 222.206 155.311 204.703 159.43 197.072 L 153.373 197.072 C 153.373 197.072 146.59 209.025 147.862 221.097 L 152.949 222.206 Z " fill="rgb(237,218,211)"/><path d=" M 154.399 209.103 C 154.399 209.103 155.09 207.815 155.256 207.395 C 155.423 206.975 156.102 207.704 155.999 208.244 C 155.897 208.783 154.399 209.103 154.399 209.103 Z " fill="rgb(238,168,134)"/><path d=" M 159.77 212.03 C 159.77 212.03 159.587 212.661 159.373 212.897 C 159.373 212.897 158.95 213.298 158.666 213.602 C 158.577 213.698 158.5 213.784 158.458 213.845 C 158.277 214.097 157.955 214.708 157.35 215.195 C 156.745 215.682 154.435 217.185 154.435 217.185 L 152.806 215.444 L 151.501 214.087 C 151.501 214.087 152.603 209.943 153.115 209.424 C 153.165 209.373 153.216 209.325 153.268 209.284 C 153.744 208.887 154.264 208.79 154.537 208.611 C 154.637 208.545 155.683 207.961 156.016 208.091 C 156.48 208.269 156.728 208.582 156.8 208.914 C 156.8 208.914 157.692 209.305 157.989 209.888 C 157.989 209.888 158.823 210.223 158.986 211.054 C 158.986 211.054 159.794 211.488 159.77 212.03" fill="rgb(238,168,134)"/><path d=" M 170.492 257.228 C 170.492 257.228 166.49 266.232 163.633 272.658 C 163.154 273.74 162.706 274.748 162.314 275.627 C 161.856 276.658 161.476 277.512 161.214 278.102 C 159.396 282.192 154.924 291.112 154.924 291.112 C 154.924 291.112 151.559 291.241 151.364 288.383 C 151.364 288.383 154.592 282.192 154.592 277.842 C 154.592 273.491 155.176 260.677 159.332 257.906 C 164.401 254.529 167.691 253.889 170.492 257.228" fill="rgb(238,168,134)"/><path d=" M 133.487 240.114 C 133.487 240.114 134.332 240.958 135.046 241.153 C 135.76 241.348 147.709 242.258 153.228 244.076 C 158.748 245.894 166.086 247.063 167.449 248.621 C 168.813 250.18 171.085 258.751 171.02 260.374 C 170.956 261.998 175.871 289.355 176.483 291.491 C 176.808 292.622 172.038 292.189 172.038 292.189 C 172.038 292.189 165.26 276.023 163.813 273.037 C 161.153 267.55 161.02 260.829 160.046 259.79 C 159.072 258.751 148.228 256.413 141.994 256.413 C 135.76 256.413 121.799 256.933 120.306 256.088 C 118.812 255.244 109.461 249.075 113.358 240.828 C 117.254 232.582 133.487 240.114 133.487 240.114 Z " fill="rgb(238,168,134)"/><path d=" M 160.452 246.02 L 150.562 265.051 C 150.562 265.051 147.583 257.989 142.386 256.773 C 137.188 255.558 116.446 256.209 116.446 256.209 C 116.446 256.209 106.928 244.169 115.079 237.853 C 123.23 231.537 132.748 238.846 132.748 238.846 C 132.748 238.846 134.715 240.979 135.666 241.025 C 142.582 241.37 149.957 242.658 160.452 246.02" fill="rgb(29,59,84)"/><path d=" M 182.58 299.97 C 182.58 299.97 179.569 300.724 178.416 299.97 C 177.262 299.218 173.337 292.587 172.038 292.189 C 172.038 292.189 173.298 289.634 176.483 291.491 C 176.483 291.491 181.727 298.867 182.58 299.97" fill="rgb(238,168,134)"/><path d=" M 157.763 299.833 C 157.763 299.833 154.689 299.407 153.899 298.278 C 153.109 297.15 151.942 289.533 150.884 288.679 C 150.884 288.679 153.006 286.778 155.27 289.689 C 155.27 289.689 157.383 298.489 157.763 299.833" fill="rgb(238,168,134)"/><path d=" M 126.351 180.348 C 128.727 180.233 133.995 181.428 134.807 187.723 C 134.807 187.723 134.617 189.42 134.205 190.754 C 133.793 192.087 134.988 196.018 134.676 196.212 C 134.365 196.405 133.076 196.654 133.076 196.654 C 133.076 196.654 131.691 200.949 130.182 200.912 C 128.675 200.875 122.967 199.697 120.278 194.353 C 117.59 189.011 116.76 180.813 126.351 180.348" fill="rgb(238,168,134)"/><path d=" M 128.146 198.953 C 128.146 198.953 127.96 199.555 127.749 200.449 C 127.642 200.905 127.527 201.437 127.428 202.004 C 127.154 203.57 126.994 205.402 127.4 206.622 C 127.4 206.622 124.066 207.776 121.433 203.065 C 121.433 203.065 122.563 197.989 121.094 194.911 C 119.624 191.834 128.146 198.953 128.146 198.953 Z " fill="rgb(238,168,134)"/><path d=" M 134.807 187.723 C 134.807 187.723 131.163 190.994 127.308 190.735 C 123.393 190.472 120.852 195.364 120.852 195.364 C 120.852 195.364 115.025 188.051 119.722 182.139 C 124.42 176.225 135.64 180.386 134.807 187.723" fill="rgb(29,59,84)"/><path d=" M 125.533 190.706 C 125.512 189.965 124.688 188.853 123.474 189.866 C 122.26 190.879 123.892 194.401 124.887 194.056 C 125.882 193.711 125.555 191.472 125.533 190.706" fill="rgb(238,168,134)"/><path d=" M 127.749 200.449 C 127.642 200.905 127.527 201.437 127.428 202.004 C 124.332 200.037 122.774 197.651 122.774 197.651 C 124.543 199.251 127.749 200.449 127.749 200.449" fill="rgb(167,120,96)"/><path d=" M 136.787 218.455 C 136.085 221.707 134.239 221.877 134.35 224.279 C 134.462 226.681 135.18 226.887 133.938 230.676 C 133.708 231.376 133.521 232.14 133.37 232.919 C 133.353 233.011 133.334 233.104 133.319 233.197 C 133.237 233.634 133.168 234.075 133.109 234.508 C 132.998 235.312 132.918 236.098 132.863 236.815 C 132.717 238.684 134.093 240.127 134.093 240.127 C 134.093 240.127 121.939 247.409 113.595 246.387 C 113.595 246.387 115.755 237.307 116.945 234.187 C 118.134 231.068 117.775 216.655 116.9 213.563 C 115.608 208.999 118.189 202.155 121.717 201.263 L 127.187 203.797 C 127.187 203.797 132.697 210.377 133.933 211.37 C 135.168 212.365 137.499 215.157 136.787 218.455" fill="rgb(29,59,84)"/><path d=" M 118.705 205.13 C 120.25 203.844 122.486 201.642 125.746 205.997 C 129.007 210.353 131.379 213.159 132.084 214.43 C 132.789 215.701 138.918 224.549 138.918 224.549 C 138.918 224.549 142.174 221.526 144.036 220.108 C 146.135 218.508 151.855 212.549 151.855 212.549 L 155.635 216.741 C 155.635 216.741 142.52 231.294 140.492 231.806 C 138.464 232.32 132.784 227.209 130.534 225.227 C 128.285 223.247 121.974 216.034 120.877 215.337 C 119.781 214.64 114.677 208.486 118.705 205.13" fill="rgb(29,59,84)"/><path d=" M 163.633 272.658 C 163.154 273.74 162.706 274.748 162.314 275.627 C 160.842 270.894 160.964 262.985 160.964 262.985 C 161.848 268.499 163.607 272.595 163.633 272.658 Z " fill="rgb(167,120,96)"/><path d=" M 100.26 260.845 L 142.386 260.845 L 142.386 256.209 L 100.26 256.209 L 100.26 260.845 Z " fill="rgb(181,222,255)"/><path d=" M 122.18 241.423 C 122.18 241.423 121.119 245.717 126.119 246.693 C 131.119 247.669 137.269 248.915 137.269 256.629 L 119.926 256.629 L 122.18 241.423 Z " fill="rgb(5,204,164)"/><path d=" M 147.891 194.667 L 148.607 193.347 L 148.702 194.845 L 147.891 194.667 Z " fill="rgb(238,168,134)"/><path d=" M 100.26 260.845 L 85.533 198.95 C 85.533 198.95 112.157 194.79 115.329 206.746 C 118.501 218.703 123.72 254.217 130.064 256.413 C 136.408 258.608 100.26 260.845 100.26 260.845" fill="rgb(5,204,164)"/><path d=" M 134.506 228.608 C 134.506 228.608 134.234 229.744 133.944 230.684 L 127.467 222.284 L 134.506 228.608 Z " fill="rgb(21,44,61)"/><path d=" M 118.266 190.108 C 118.266 190.108 120.827 196.873 120.131 198.72 C 120.131 198.72 124.128 197.013 123.398 192.58 C 122.669 188.149 118.266 190.108 118.266 190.108 Z " fill="rgb(29,59,84)"/><path d=" M 127.502 204.173 L 127.502 202.834 L 121.819 200.066 L 119.852 202.337 L 127.502 204.173" fill="rgb(29,59,84)"/><path d=" M 147.65 302.405 C 147.65 303.621 146.664 304.607 145.448 304.607 C 144.232 304.607 143.246 303.621 143.246 302.405 C 143.246 301.188 144.232 300.203 145.448 300.203 C 146.664 300.203 147.65 301.188 147.65 302.405 Z " fill="rgb(191,178,172)"/><path d=" M 98.058 300.222 L 98.616 301.791 L 122.18 294.49 L 121.051 291.313 L 98.058 300.222" fill="rgb(145,135,131)"/><path d=" M 145.448 300.222 L 144.891 301.791 L 121.326 294.49 L 122.361 291.114 L 145.448 300.222" fill="rgb(145,135,131)"/><path d=" M 128.845 301.623 L 128.845 303.448 L 121.326 294.49 L 122.361 291.114 L 128.845 301.623 Z " fill="rgb(145,135,131)"/><path d=" M 129.032 302.405 C 129.032 303.621 128.046 304.607 126.83 304.607 C 125.614 304.607 124.628 303.621 124.628 302.405 C 124.628 301.188 125.614 300.203 126.83 300.203 C 128.046 300.203 129.032 301.188 129.032 302.405 Z " fill="rgb(191,178,172)"/><path d=" M 100.26 302.405 C 100.26 303.621 99.274 304.607 98.058 304.607 C 96.841 304.607 95.856 303.621 95.856 302.405 C 95.856 301.188 96.841 300.203 98.058 300.203 C 99.274 300.203 100.26 301.188 100.26 302.405 Z " fill="rgb(191,178,172)"/><path d=" M 407.072 81.177 C 407.072 87.019 404.972 92.368 401.486 96.515 C 400.669 97.485 399.779 98.388 398.821 99.216 C 398.548 99.452 398.268 99.683 397.984 99.906 C 397.663 100.16 397.336 100.404 397.002 100.642 C 393.864 102.866 390.164 104.35 386.159 104.84 C 385.454 104.927 384.738 104.983 384.014 105.006 C 383.754 105.014 383.493 105.018 383.231 105.018 C 382.46 105.018 381.697 104.982 380.945 104.91 C 380.104 104.83 379.276 104.707 378.464 104.541 C 374.852 103.808 371.536 102.26 368.718 100.093 C 367.868 99.441 367.064 98.733 366.312 97.974 C 366.165 97.827 366.02 97.677 365.878 97.525 C 365.343 96.96 364.839 96.369 364.365 95.754 C 361.244 91.724 359.388 86.667 359.388 81.177 C 359.388 68.009 370.064 57.334 383.231 57.334 C 396.398 57.334 407.072 68.009 407.072 81.177" fill="rgb(238,240,247)"/><path d=" M 398.761 94.332 L 397.002 100.642 C 393.864 102.866 390.164 104.35 386.159 104.84 C 385.454 104.927 384.738 104.983 384.014 105.006 C 383.754 105.014 383.493 105.018 383.231 105.018 C 382.46 105.018 381.697 104.982 380.945 104.91 C 380.104 104.83 379.276 104.707 378.464 104.541 C 374.852 103.808 371.536 102.26 368.718 100.093 C 368.382 98.007 368.019 95.698 367.701 93.539 C 369.453 92.887 375.03 90.99 378.55 89.8 C 378.599 89.783 378.649 89.767 378.696 89.751 C 378.774 89.724 378.85 89.698 378.925 89.674 C 379.134 89.603 379.333 89.535 379.523 89.472 C 379.716 89.406 379.899 89.345 380.07 89.286 C 380.791 89.043 381.299 88.872 381.481 88.812 C 381.482 88.811 381.482 88.811 381.484 88.811 C 381.531 88.794 381.555 88.786 381.555 88.786 L 381.596 88.788 L 386.33 89.143 L 387.123 89.202 L 387.371 89.221 C 387.371 89.221 387.406 89.229 387.478 89.248 C 387.763 89.32 388.593 89.538 389.691 89.873 C 389.693 89.873 389.695 89.874 389.696 89.874 C 392.499 90.732 397.047 92.361 398.761 94.332" fill="rgb(217,199,193)"/><path d=" M 384.472 69.338 C 384.472 69.338 390.148 70.296 389.186 79.182 C 388.222 88.069 383.213 87.285 382.876 87.273 C 382.542 87.26 377.838 87.38 377.589 76.514 C 377.589 76.514 377.517 68.48 384.472 69.338 Z " fill="rgb(238,169,135)"/><path d=" M 386.959 84.697 C 386.959 84.697 386.763 88.354 387.109 89.15 C 387.455 89.946 382.551 92.465 379.504 89.596 C 379.504 89.596 380.12 85.598 379.929 84.187 C 379.737 82.774 386.959 84.697 386.959 84.697" fill="rgb(238,169,135)"/><path d=" M 389.301 76.671 C 389.301 76.671 389.931 76.012 390.152 76.688 C 390.373 77.364 389.146 80.359 389.222 80.495 C 389.222 80.495 389.106 80.754 388.958 80.609 C 388.81 80.464 389.301 76.671 389.301 76.671" fill="rgb(238,169,135)"/><path d=" M 377.654 76.431 C 377.654 76.431 377.052 75.748 376.804 76.414 C 376.555 77.08 377.462 80.071 377.576 80.255 C 377.576 80.255 377.771 80.562 377.925 80.423 C 378.078 80.284 377.654 76.431 377.654 76.431" fill="rgb(238,169,135)"/><path d=" M 389.665 75.916 C 389.468 77.132 389.284 78.035 389.284 78.035 L 388.458 79.114 C 388.458 79.114 388.507 76.728 388.38 76.353 C 388.333 76.211 388.277 75.96 388.218 75.688 C 388.123 75.238 388.026 74.731 387.959 74.562 C 387.854 74.291 383.095 72.902 378.856 74.853 C 378.856 74.853 378.892 75.22 378.889 75.629 C 378.888 76.106 378.836 76.639 378.618 76.72 C 378.211 76.868 378.38 79.511 378.38 79.511 L 377.72 78.749 C 377.72 78.749 377.528 77.368 377.341 75.781 C 377.341 75.781 377.34 75.777 377.339 75.769 C 377.297 75.399 377.253 75.019 377.212 74.641 C 377.117 73.045 377.275 70.146 379.354 68.444 C 380.757 67.843 382.996 67.333 386.728 68.476 C 386.728 68.476 387.585 68.533 387.826 68.764 C 390.15 71.322 389.665 75.916 389.665 75.916" fill="rgb(232,115,77)"/><path d=" M 380.318 86.085 C 380.318 86.085 381.224 87.343 383.329 87.295 C 385.434 87.248 386.347 86.15 386.347 86.15 C 386.347 86.15 385.351 88.235 383.32 88.212 C 381.286 88.19 380.318 86.085 380.318 86.085 Z " fill="rgb(199,141,113)"/><path d=" M 378.926 89.672 C 378.926 89.672 380.446 92.321 383.333 92.57 C 385.165 92.728 386.749 90.409 387.492 89.269 C 387.492 89.269 383.392 87.514 378.926 89.672" fill="rgb(238,169,135)"/><path d=" M 386.966 88.431 C 386.966 88.431 385.805 89.951 383.333 91.578 L 384.871 93.947 L 387.492 89.269 L 386.966 88.431" fill="rgb(237,218,211)"/><path d=" M 379.62 88.786 C 379.62 88.786 381.096 90.636 383.333 91.578 L 381.645 94.019 L 378.696 89.75 L 379.62 88.786" fill="rgb(237,218,211)"/><path d=" M 383.333 91.578 L 384.651 93.583 C 384.651 93.583 383.267 94.366 381.981 93.534 L 383.333 91.578 Z " fill="rgb(80,115,171)"/><path d=" M 400.284 93.96 C 400.284 93.96 400.271 94.005 400.246 94.091 C 400.101 94.606 399.545 96.585 398.821 99.216 C 398.548 99.452 398.268 99.683 397.984 99.906 C 397.663 100.16 397.336 100.404 397.002 100.642 C 393.864 102.866 390.164 104.35 386.159 104.84 C 386.512 96.587 387.492 89.269 387.492 89.269 C 388.265 89.472 388.997 89.674 389.691 89.873 C 389.693 89.873 389.695 89.874 389.696 89.874 C 395.746 91.61 398.813 93.134 399.86 93.713 C 399.869 93.716 399.876 93.721 399.883 93.725 C 400.156 93.877 400.284 93.96 400.284 93.96" fill="rgb(50,54,87)"/><path d=" M 378.464 104.541 C 374.852 103.808 371.536 102.26 368.718 100.093 C 367.868 99.441 367.064 98.733 366.312 97.974 C 366.165 97.827 366.02 97.677 365.878 97.525 C 365.46 95.753 365.183 94.596 365.165 94.521 L 365.164 94.517 C 365.164 94.517 368.114 92.579 378.55 89.794 C 378.55 89.794 378.55 89.797 378.55 89.8 C 378.55 90.039 378.556 96.733 378.464 104.541" fill="rgb(50,54,87)"/><path d=" M 384.088 93.804 C 383.991 95.977 383.98 100.194 384.014 105.006 C 383.754 105.014 383.493 105.018 383.231 105.018 C 382.46 105.018 381.697 104.982 380.945 104.91 C 381.404 98.976 382.177 95.265 382.529 93.797 C 382.644 93.316 382.715 93.076 382.715 93.076 L 384.113 93.307 C 384.103 93.459 384.096 93.624 384.088 93.804" fill="rgb(80,115,171)"/><path d=" M 401.486 96.515 C 400.669 97.485 399.779 98.388 398.821 99.216 C 398.548 99.452 398.268 99.683 397.984 99.906 L 399.86 93.713 L 399.861 93.71 C 399.869 93.715 399.876 93.719 399.883 93.725 C 399.998 93.8 400.118 93.923 400.246 94.091 C 400.614 94.573 401.036 95.418 401.486 96.515" fill="rgb(50,54,87)"/><path d=" M 366.312 97.974 C 366.165 97.827 366.02 97.677 365.878 97.525 C 365.343 96.96 364.839 96.369 364.365 95.754 C 364.633 95.111 364.902 94.678 365.164 94.517 L 365.165 94.521 L 366.312 97.974" fill="rgb(50,54,87)"/><path d=" M 239.277 56.086 L 212.531 56.086 C 211.047 56.086 209.844 54.884 209.844 53.4 L 209.844 51.301 C 209.844 49.817 211.047 48.614 212.531 48.614 L 239.277 48.614 C 240.761 48.614 241.963 49.817 241.963 51.301 L 241.963 53.4 C 241.963 54.884 240.761 56.086 239.277 56.086 Z " fill="rgb(245,247,255)"/><path d=" M 216.508 90.252 C 216.555 86.557 218.332 83.288 221.058 81.207 C 223.045 79.688 225.532 78.8 228.223 78.835 C 233.171 78.898 237.352 82.059 238.948 86.45 L 238.951 86.456 C 239.329 87.501 239.562 88.615 239.625 89.775 C 239.638 90.031 239.642 90.289 239.64 90.549 C 239.606 93.164 238.707 95.564 237.22 97.481 C 235.073 100.25 231.699 102.015 227.927 101.966 C 226.679 101.949 225.483 101.737 224.364 101.358 C 219.743 99.796 216.443 95.395 216.508 90.252 L 216.508 90.252 Z  M 223.127 105.016 C 224.618 105.521 226.215 105.804 227.876 105.825 C 232.908 105.89 237.41 103.539 240.273 99.848 C 242.258 97.288 243.457 94.086 243.5 90.598 C 243.504 90.252 243.497 89.906 243.479 89.566 C 243.397 88.016 243.085 86.528 242.577 85.131 C 240.45 79.275 234.872 75.059 228.274 74.974 C 224.718 74.928 221.43 76.088 218.795 78.076 C 215.114 80.852 212.712 85.238 212.649 90.203 C 212.561 97.06 216.962 102.931 223.127 105.016" fill="rgb(120,194,255)"/><path d=" M 237.22 97.482 L 240.272 99.847 C 237.409 103.539 232.908 105.89 227.876 105.825 C 226.215 105.805 224.619 105.521 223.126 105.016 L 224.365 101.359 C 225.484 101.737 226.681 101.949 227.926 101.965 C 231.698 102.014 235.072 100.25 237.22 97.482" fill="rgb(26,89,140)"/><path d=" M 239.623 89.774 L 243.479 89.565 C 243.497 89.906 243.505 90.252 243.5 90.598 C 243.455 94.086 242.257 97.288 240.272 99.847 L 237.22 97.482 C 238.707 95.564 239.605 93.164 239.64 90.549 C 239.643 90.289 239.637 90.03 239.623 89.774" fill="rgb(34,115,181)"/><path d=" M 239.625 89.775 C 239.562 88.615 239.329 87.501 238.951 86.456 L 238.948 86.45 L 242.577 85.131 C 243.085 86.528 243.397 88.016 243.479 89.566 L 239.625 89.775" fill="rgb(34,115,181)"/><path d=" M 218.795 78.076 C 221.43 76.088 224.718 74.928 228.274 74.974 C 234.872 75.059 240.45 79.275 242.577 85.131 L 238.951 86.456 L 238.948 86.45 C 237.352 82.059 233.171 78.898 228.223 78.835 C 225.532 78.8 223.045 79.688 221.058 81.207 L 218.795 78.076" fill="rgb(77,168,242)"/><path d=" M 342.844 135.749 L 332.851 135.749 C 330.865 135.749 329.254 134.139 329.254 132.153 L 329.254 122.16 C 329.254 120.174 330.865 118.564 332.851 118.564 L 342.844 118.564 C 344.831 118.564 346.44 120.174 346.44 122.16 L 346.44 132.153 C 346.44 134.139 344.831 135.749 342.844 135.749 Z " fill="rgb(1,172,138)"/><path d=" M 337.304 130.942 L 332.959 127.154 C 332.603 126.843 332.565 126.303 332.876 125.947 C 333.187 125.591 333.727 125.554 334.083 125.864 L 337.155 128.542 L 341.536 123.656 C 341.853 123.304 342.394 123.275 342.745 123.59 C 343.098 123.906 343.126 124.447 342.811 124.799 L 337.304 130.942" fill="rgb(243,243,243)"/><path d=" M 342.844 157.771 L 332.851 157.771 C 330.865 157.771 329.254 156.161 329.254 154.175 L 329.254 144.182 C 329.254 142.196 330.865 140.586 332.851 140.586 L 342.844 140.586 C 344.831 140.586 346.44 142.196 346.44 144.182 L 346.44 154.175 C 346.44 156.161 344.831 157.771 342.844 157.771" fill="rgb(1,172,138)"/><path d=" M 337.304 152.964 L 332.959 149.176 C 332.603 148.865 332.565 148.325 332.876 147.969 C 333.187 147.613 333.727 147.575 334.083 147.886 L 337.155 150.564 L 341.536 145.678 C 341.853 145.326 342.394 145.296 342.745 145.612 C 343.098 145.927 343.126 146.468 342.811 146.82 L 337.304 152.964" fill="rgb(243,243,243)"/><path d=" M 342.844 179.793 L 332.851 179.793 C 330.865 179.793 329.254 178.183 329.254 176.197 L 329.254 166.204 C 329.254 164.218 330.865 162.608 332.851 162.608 L 342.844 162.608 C 344.831 162.608 346.44 164.218 346.44 166.204 L 346.44 176.197 C 346.44 178.183 344.831 179.793 342.844 179.793 Z " fill="rgb(1,172,138)"/><path d=" M 274.81 281.555 C 274.81 281.555 275.329 285.039 275.676 286.524 C 276.024 288.01 279.236 292.27 279.179 292.996 C 279.122 293.72 277.763 294.574 277.08 293.99 C 276.396 293.407 271.857 288.743 270.887 286.745 C 269.917 284.748 266.707 282.143 266.379 281.256 C 266.051 280.369 270.165 277.774 271.224 277.36 C 272.284 276.946 274.81 281.555 274.81 281.555 Z " fill="rgb(29,32,51)"/><path d=" M 266.766 219.581 C 266.766 219.581 267.191 221.802 267.503 222.213 C 267.816 222.623 268.66 224.688 268.745 224.979 C 268.83 225.269 269.35 227.356 269.438 227.619 C 269.526 227.884 268.932 228.295 268.526 227.737 C 268.274 227.391 267.831 226.041 267.652 225.605 C 267.471 225.17 266.918 223.791 266.769 224.042 C 266.62 224.294 266.656 226.143 266.631 226.618 C 266.607 227.093 266.908 228.556 267.05 229.161 C 267.191 229.767 267.997 232.304 267.673 232.441 C 267.351 232.578 267.078 232.54 266.661 231.859 C 266.661 231.859 266.001 232.229 265.616 231.393 C 265.616 231.393 265.025 231.607 264.66 230.518 C 264.66 230.518 264.24 230.288 264.076 229.897 C 263.914 229.507 262.957 226.169 262.965 224.807 C 262.974 223.446 263.293 222.497 263.235 221.536 C 263.177 220.574 262.684 218.519 262.684 218.519 L 266.766 219.581" fill="rgb(238,168,134)"/><path d=" M 272.46 276.814 L 271.224 277.36 L 274.81 281.555 L 275.998 280.24 L 272.46 276.814 Z " fill="rgb(80,85,138)"/><path d=" M 284.993 285.605 C 284.993 285.605 284.195 287.529 283.522 288.291 C 282.849 289.055 280.272 290.418 280.258 292.683 C 280.244 295.139 284.603 294.457 286.307 294.368 C 288.011 294.277 288.141 292.965 288.858 291.575 C 289.577 290.185 290.3 290.42 290.434 289.297 C 290.569 288.177 289.885 285.665 289.885 285.665 L 284.993 285.605 Z " fill="rgb(29,32,51)"/><path d=" M 284.919 284.894 L 284.795 286.059 C 284.795 286.059 287.476 287.023 290.011 286.16 L 289.869 284.568 L 284.919 284.894" fill="rgb(80,85,138)"/><path d=" M 286.405 253.109 C 286.33 249.043 284.521 226.26 284.712 226.26 C 285.603 226.26 290.616 247.956 290.801 251.01 C 290.84 251.635 290.058 253.034 288.794 254.875 C 288.226 255.704 287.56 256.622 286.827 257.599 L 286.826 257.6 C 286.577 255.367 286.416 253.725 286.405 253.109 L 286.405 253.109 Z  M 299.789 255.296 C 299.789 252.268 297.579 225.847 297.679 224.838 C 297.746 224.179 297.043 217.854 296.545 213.533 C 296.541 213.495 296.537 213.458 296.532 213.422 C 296.532 213.413 296.53 213.404 296.53 213.396 C 296.389 212.182 296.267 211.135 296.184 210.433 C 296.146 210.108 296.117 209.856 296.098 209.697 C 296.082 209.565 296.074 209.495 296.074 209.495 C 296.074 209.495 281.814 206.683 274.421 209.339 C 274.112 209.451 273.816 209.571 273.533 209.702 C 273.533 209.702 273.515 209.828 273.483 210.064 C 273.409 210.611 273.254 211.751 273.049 213.299 C 273.014 213.561 272.977 213.833 272.939 214.117 C 271.887 222.083 272.563 230.74 274.405 239.603 C 276.212 248.297 277.206 254.799 277.392 256.062 C 277.638 257.719 278.363 262.277 279.165 267.276 C 275.241 272.116 271.895 276.232 272.144 276.641 C 272.764 277.653 278.27 283.354 278.573 282.344 C 278.573 282.344 279.568 281.219 281.125 279.424 C 281.621 282.482 281.96 284.568 281.96 284.568 C 281.96 284.568 287.995 286.01 290.217 284.697 C 290.217 284.697 289.343 278.065 288.433 270.854 C 293.974 264.221 299.789 256.882 299.789 255.296" fill="rgb(41,44,71)"/><path d=" M 302.17 171.703 L 298.336 185.46 C 298.205 185.906 298.048 186.455 297.88 187.094 L 297.874 187.118 C 297.872 187.123 297.87 187.129 297.869 187.134 C 297.23 189.587 296.438 193.324 296.202 197.477 C 296.042 200.309 296.567 211.691 296.567 211.691 C 296.567 211.691 290.764 213.855 282.082 213.307 C 282.082 213.307 272.743 213.089 273.504 207.363 C 275.52 192.208 273.549 185.959 273.285 184.438 C 273.285 184.438 272.018 177.076 271.11 170.909 C 273.738 169.931 284.964 166.156 284.964 166.156 L 290.78 166.592 C 290.78 166.592 299.617 168.767 302.17 171.703" fill="rgb(217,199,193)"/><path d=" M 287.881 146.708 C 287.881 146.708 293.558 147.666 292.594 156.552 C 291.632 165.44 286.622 164.656 286.286 164.643 C 285.951 164.631 281.247 164.75 280.999 153.885 C 280.999 153.885 280.926 145.852 287.881 146.708 Z " fill="rgb(238,169,135)"/><path d=" M 290.368 162.067 C 290.368 162.067 290.172 165.725 290.518 166.521 C 290.864 167.316 285.96 169.835 282.913 166.966 C 282.913 166.966 283.53 162.968 283.338 161.556 C 283.146 160.145 290.368 162.067 290.368 162.067" fill="rgb(238,169,135)"/><path d=" M 292.71 154.041 C 292.71 154.041 293.34 153.383 293.561 154.058 C 293.782 154.735 292.555 157.73 292.632 157.865 C 292.632 157.865 292.515 158.126 292.367 157.98 C 292.219 157.835 292.71 154.041 292.71 154.041" fill="rgb(238,169,135)"/><path d=" M 281.064 153.801 C 281.064 153.801 280.461 153.118 280.212 153.784 C 279.964 154.45 280.872 157.441 280.985 157.626 C 280.985 157.626 281.181 157.933 281.334 157.793 C 281.488 157.654 281.064 153.801 281.064 153.801 Z " fill="rgb(238,169,135)"/><path d=" M 293.073 153.286 C 292.877 154.502 292.692 155.406 292.692 155.406 L 291.867 156.485 C 291.867 156.485 291.916 154.099 291.789 153.724 C 291.741 153.582 291.685 153.33 291.627 153.058 C 291.532 152.609 291.436 152.101 291.369 151.932 C 291.262 151.662 286.504 150.272 282.265 152.224 C 282.265 152.224 282.302 152.591 282.299 153.001 C 282.297 153.476 282.245 154.01 282.027 154.09 C 281.621 154.238 281.79 156.882 281.79 156.882 L 281.129 156.119 C 281.129 156.119 280.938 154.738 280.75 153.151 C 280.75 153.151 280.749 153.148 280.749 153.141 C 280.706 152.77 280.663 152.389 280.621 152.012 C 280.527 150.415 280.684 147.517 282.763 145.814 C 284.166 145.213 286.405 144.703 290.138 145.846 C 290.138 145.846 290.994 145.904 291.234 146.135 C 293.559 148.694 293.073 153.286 293.073 153.286" fill="rgb(232,115,77)"/><path d=" M 283.728 163.455 C 283.728 163.455 284.634 164.714 286.739 164.666 C 288.843 164.618 289.756 163.521 289.756 163.521 C 289.756 163.521 288.76 165.605 286.728 165.583 C 284.696 165.561 283.728 163.455 283.728 163.455" fill="rgb(199,141,113)"/><path d=" M 282.334 167.043 C 282.334 167.043 283.856 169.692 286.742 169.941 C 288.573 170.099 290.158 167.779 290.901 166.639 C 290.901 166.639 286.802 164.884 282.334 167.043 Z " fill="rgb(238,169,135)"/><path d=" M 290.374 165.802 C 290.374 165.802 289.214 167.323 286.742 168.949 L 288.28 171.318 L 290.901 166.639 L 290.374 165.802 Z " fill="rgb(237,218,211)"/><path d=" M 283.029 166.156 C 283.029 166.156 284.505 168.008 286.742 168.949 L 285.055 171.389 L 282.105 167.12 L 283.029 166.156" fill="rgb(237,218,211)"/><path d=" M 286.742 168.949 L 288.06 170.954 C 288.06 170.954 286.676 171.736 285.39 170.903 L 286.742 168.949 Z " fill="rgb(80,115,171)"/><path d=" M 273.186 214.338 C 273.186 214.338 280.309 216.966 296.415 214.49 L 296.202 211.574 C 296.202 211.574 286.865 214.329 273.471 211.97 L 273.186 214.338 Z " fill="rgb(29,32,51)"/><path d=" M 290.901 166.639 C 290.901 166.639 289.236 179.08 289.464 189.811 C 289.692 200.542 297.797 220.029 297.797 220.029 C 297.797 220.029 301.34 216.603 302.882 214.663 C 302.882 214.663 297.366 198.748 297.467 195.877 C 297.569 193.006 303.692 171.33 303.692 171.33 C 303.692 171.33 300.289 169.111 290.901 166.639 Z " fill="rgb(50,54,87)"/><path d=" M 281.96 167.165 C 281.96 167.165 281.973 179.08 281.744 189.811 C 281.516 200.542 280.103 220.518 280.103 220.518 C 280.103 220.518 272.17 219.263 270.628 217.323 C 270.628 217.323 273.842 198.748 273.741 195.877 C 273.64 193.006 268.574 171.888 268.574 171.888 C 268.574 171.888 271.522 169.949 281.96 167.165" fill="rgb(50,54,87)"/><path d=" M 282.9 215.726 L 287.276 215.726 L 287.276 212.472 L 282.9 212.472 L 282.9 215.726 Z " fill="rgb(58,64,102)"/><path d=" M 286.124 170.447 C 286.124 170.447 284.169 177.118 283.998 190.367 C 283.828 203.616 284.239 207.416 284.239 207.416 L 285.764 210.434 L 287.798 207.284 C 287.798 207.284 287.146 176.796 287.523 170.679 L 286.124 170.447 Z " fill="rgb(80,115,171)"/><path d=" M 297.355 220.141 C 297.355 220.141 297.834 219.822 297.965 219.596 C 297.965 219.596 298.167 219.167 298.332 218.869 C 298.385 218.776 298.434 218.694 298.471 218.645 C 298.628 218.438 299.043 218.023 299.259 217.435 C 299.475 216.847 299.656 214.11 299.656 214.11 L 297.978 213.617 L 296.484 212.96 C 296.484 212.96 293.214 215.467 292.94 215.996 C 292.913 216.047 292.889 216.099 292.871 216.15 C 292.689 216.616 292.779 217.028 292.715 217.281 C 292.692 217.374 292.538 218.315 292.759 218.523 C 293.064 218.812 293.412 218.905 293.72 218.86 C 293.72 218.86 294.346 219.403 294.942 219.452 C 294.942 219.452 295.502 219.97 296.265 219.848 C 296.265 219.848 296.901 220.317 297.355 220.141" fill="rgb(238,168,134)"/><path d=" M 295.215 212.659 C 295.215 212.659 297.484 214.659 300.663 215.726 C 300.663 215.726 311.204 198.55 311.337 197.311 C 311.461 196.164 306.108 172.808 303.692 171.33 L 299.306 184.176 C 299.596 184.09 304.298 193.933 304.316 195.199 C 304.342 196.896 295.215 212.659 295.215 212.659" fill="rgb(50,54,87)"/><path d=" M 268.007 221.904 C 268.007 221.904 265.638 222.345 262.212 222.151 C 262.212 222.151 263.547 200.104 263.414 198.864 C 263.29 197.718 266.159 173.367 268.574 171.888 L 272.882 184.868 C 272.591 184.783 269.994 198.145 269.976 199.411 C 269.95 201.108 268.007 221.904 268.007 221.904 Z " fill="rgb(50,54,87)"/><path d=" M 292.456 215.099 L 299.229 218.612 L 296.566 223.541 L 290.802 217.377 L 292.456 215.099" fill="rgb(41,44,71)"/><path d=" M 288.794 254.875 L 288.11 268.279 L 286.827 257.6 L 286.827 257.599 C 287.56 256.622 288.226 255.704 288.794 254.875" fill="rgb(29,32,51)"/><path d=" M 254.704 104.91 L 258.657 104.91 L 258.657 91.947 L 254.704 91.947 L 254.704 104.91 Z " fill="rgb(120,194,255)"/><path d=" M 400.304 178.301 C 400.304 188.382 392.136 196.624 381.981 196.624 C 371.843 196.624 363.657 188.402 363.657 178.301 C 363.657 168.181 371.861 159.977 381.981 159.977 C 392.101 159.977 400.304 168.181 400.304 178.301" fill="rgb(238,240,247)"/><path d=" M 248.225 104.91 L 252.178 104.91 L 252.178 95.583 L 248.225 95.583 L 248.225 104.91 Z " fill="rgb(120,194,255)"/><path d=" M 261.184 104.91 L 265.137 104.91 L 265.137 85.94 L 261.184 85.94 L 261.184 104.91 Z " fill="rgb(120,194,255)"/><path d=" M 425.888 232.324 L 451.316 232.324 L 451.316 230.814 L 425.888 230.814 L 425.888 232.324 Z " fill="rgb(226,210,202)"/><path d=" M 445.68 304.896 L 447.907 304.896 L 447.907 236.252 L 445.68 236.252 L 445.68 304.896 Z " fill="rgb(112,104,101)"/><path d=" M 412.193 232.543 L 429.868 232.543 L 429.868 230.386 L 412.193 230.386 L 412.193 232.543 Z " fill="rgb(204,189,183)"/><path d=" M 417.684 232.324 L 424.377 232.324 L 424.377 211.995 L 417.684 211.995 L 417.684 232.324 Z " fill="rgb(70,103,168)"/><path d=" M 362.51 236.252 L 460.436 236.252 L 460.436 232.349 L 362.51 232.349 L 362.51 236.252 Z " fill="rgb(181,144,116)"/><path d=" M 479.231 208.725 C 479.231 208.725 480.302 223.745 477.367 225.543 C 475.529 226.669 468.199 230.467 468.416 231.179 C 468.633 231.891 472.555 237.516 472.555 237.516 C 472.555 237.516 486.635 228.245 487.089 225.323 C 487.532 222.469 486.396 203.331 484.461 202.449 C 483.012 201.788 482.246 202.335 480.42 203.691 C 477.856 205.595 479.231 208.725 479.231 208.725" fill="rgb(255,192,92)"/><path d=" M 461.908 295.524 C 461.908 295.524 462.345 298.563 462.401 299.019 C 462.455 299.476 467.27 298.75 467.27 298.75 L 467.66 295.132 C 467.66 295.132 462.509 295.095 461.908 295.524" fill="rgb(66,71,115)"/><path d=" M 462.349 298.633 C 462.349 298.633 460.823 300.465 459.347 301.263 C 457.872 302.06 455.553 302.377 454.679 303.203 C 454.05 303.8 452.386 306.367 458.515 306.315 C 464.644 306.263 467.599 306.678 468.256 305.693 C 468.913 304.71 467.305 298.427 467.305 298.427 C 467.305 298.427 465.854 298.95 462.349 298.633" fill="rgb(41,44,71)"/><path d=" M 431.053 295.553 C 431.053 295.553 431.491 298.592 431.545 299.047 C 431.6 299.504 436.416 298.779 436.416 298.779 L 436.806 295.161 C 436.806 295.161 431.656 295.124 431.053 295.553" fill="rgb(66,71,115)"/><path d=" M 431.495 298.662 C 431.495 298.662 429.968 300.494 428.492 301.291 C 427.017 302.089 421.586 302.745 420.713 303.572 C 420.084 304.167 419.036 306.569 427.66 306.344 C 433.787 306.185 436.745 306.706 437.4 305.722 C 438.058 304.738 436.451 298.456 436.451 298.456 C 436.451 298.456 435.083 299.014 431.495 298.662" fill="rgb(41,44,71)"/><path d=" M 477.441 243.027 C 477.441 243.027 459.932 245.99 455.978 246.61 C 452.023 247.232 430.581 252.568 427.9 254.193 C 425.765 255.487 429.019 286.569 429.779 298.427 L 438.224 298.427 L 438.837 262.855 C 448.972 263.11 456.204 260.485 463.584 261.606 C 470.964 262.726 477.117 264.32 481.806 258.029 C 481.806 258.029 481.98 244.401 477.441 243.027 Z " fill="rgb(41,44,71)"/><path d=" M 460.183 298.456 L 468.414 297.946 L 469.215 262.855 C 473.579 262.965 475.074 262.688 478.606 262.26 L 485.249 246.813 C 479.426 247.978 460.767 252.684 458.279 254.193 C 456.144 255.488 459.423 286.598 460.183 298.456" fill="rgb(41,44,71)"/><path d=" M 469.381 177.398 C 469.381 177.398 462.963 175.624 460.513 180.607 C 458.066 185.589 459.175 195.035 462.41 195.923 C 465.645 196.813 470.296 195.789 471.64 192.688 C 472.982 189.587 474.053 185.18 473.732 182.327 C 473.411 179.473 471.086 178.079 469.381 177.398 Z " fill="rgb(238,168,134)"/><path d=" M 464.087 194.929 C 464.087 194.929 464.158 198.718 463.74 199.526 C 463.322 200.334 472.678 200.131 472.678 200.131 C 472.678 200.131 471.203 195.581 472.039 191.704 C 472.867 187.868 464.087 194.929 464.087 194.929" fill="rgb(238,168,134)"/><path d=" M 472.543 190.27 C 472.543 190.27 472.043 191.286 469.622 191.122 C 467.201 190.958 464.006 188.037 462.979 187.776 C 461.95 187.515 461.89 186.93 461.89 186.93 L 461.345 187.896 L 460.293 188.057 C 460.293 188.057 461.008 185.129 459.448 184.098 C 457.888 183.067 460.15 174.764 468.047 176.767 C 468.047 176.767 474.073 177.87 474.154 181.236 C 474.234 184.6 473.713 188.487 472.543 190.27 Z " fill="rgb(58,63,71)"/><path d=" M 463.248 199.429 C 463.248 199.429 463.275 197.886 463.974 197.737 C 464.674 197.589 471.328 196.674 472.186 197.012 L 472.555 199.05 C 472.555 199.05 470.9 200.068 463.248 199.429" fill="rgb(226,210,202)"/><path d=" M 461.323 186.239 C 461.502 184.974 462.94 183.522 463.764 185.492 C 464.588 187.462 463.208 190.332 462.284 190.178 C 461.36 190.024 461.08 187.955 461.323 186.239 Z " fill="rgb(238,168,134)"/><path d=" M 435.377 217.665 C 435.38 217.664 435.385 217.663 435.388 217.664 C 435.34 217.686 435.333 217.686 435.377 217.665 Z " fill="rgb(50,54,87)"/><path d=" M 471.253 178.301 C 471.253 178.301 479.079 177.933 472.619 190.149 L 471.253 178.301 Z " fill="rgb(58,63,71)"/><path d=" M 488.689 302.618 L 488.107 304.255 L 463.509 296.635 L 464.689 293.318 L 488.689 302.618 Z " fill="rgb(145,135,131)"/><path d=" M 462.667 295.468 L 465.462 295.468 L 465.462 268.725 L 462.667 268.725 L 462.667 295.468 Z " fill="rgb(145,135,131)"/><path d=" M 455.819 268.88 L 472.309 268.88 L 472.309 267.304 L 455.819 267.304 L 455.819 268.88 Z " fill="rgb(94,88,84)"/><path d=" M 439.222 302.618 L 439.804 304.255 L 464.402 296.635 L 463.321 293.11 L 439.222 302.618 Z " fill="rgb(145,135,131)"/><path d=" M 456.553 304.081 L 456.553 305.986 L 464.402 296.635 L 463.321 293.11 L 456.553 304.081 Z " fill="rgb(145,135,131)"/><path d=" M 436.924 304.896 C 436.924 306.166 437.953 307.195 439.222 307.195 C 440.492 307.195 441.521 306.166 441.521 304.896 C 441.521 303.627 440.492 302.598 439.222 302.598 C 437.953 302.598 436.924 303.627 436.924 304.896 Z " fill="rgb(191,178,172)"/><path d=" M 456.357 304.896 C 456.357 306.166 457.387 307.195 458.657 307.195 C 459.926 307.195 460.955 306.166 460.955 304.896 C 460.955 303.627 459.926 302.598 458.657 302.598 C 457.387 302.598 456.357 303.627 456.357 304.896 Z " fill="rgb(191,178,172)"/><path d=" M 486.39 304.896 C 486.39 306.166 487.42 307.195 488.689 307.195 C 489.959 307.195 490.988 306.166 490.988 304.896 C 490.988 303.627 489.959 302.598 488.689 302.598 C 487.42 302.598 486.39 303.627 486.39 304.896 Z " fill="rgb(191,178,172)"/><path d=" M 447.37 267.304 L 480.542 267.304 C 482.169 267.304 483.488 265.985 483.488 264.358 L 483.488 264.282 C 483.488 262.656 482.169 261.335 480.542 261.335 L 447.37 261.335 C 445.743 261.335 444.424 262.656 444.424 264.282 L 444.424 264.358 C 444.424 265.985 445.743 267.304 447.37 267.304 Z " fill="rgb(226,210,202)"/><path d=" M 375.039 304.896 L 377.266 304.896 L 377.266 236.252 L 375.039 236.252 L 375.039 304.896 Z " fill="rgb(112,104,101)"/><path d=" M 395.074 221.788 L 446.987 221.788 C 448.61 221.788 449.927 220.473 449.927 218.849 L 449.927 183.958 C 449.927 182.334 448.61 181.018 446.987 181.018 L 395.074 181.018 C 393.45 181.018 392.134 182.334 392.134 183.958 L 392.134 218.849 C 392.134 220.473 393.45 221.788 395.074 221.788 Z " fill="rgb(95,139,227)"/><path d=" M 394.398 215.399 L 447.664 215.399 L 447.664 183.222 L 394.398 183.222 L 394.398 215.399 Z " fill="rgb(245,247,255)"/><path d=" M 394.398 185.782 L 447.664 185.782 L 447.664 183.222 L 394.398 183.222 L 394.398 185.782 Z " fill="rgb(206,207,214)"/><path d=" M 398.186 213.417 L 400.97 213.417 C 401.975 213.417 402.789 212.603 402.789 211.598 L 402.789 189.528 C 402.789 188.524 401.975 187.709 400.97 187.709 L 398.186 187.709 C 397.181 187.709 396.367 188.524 396.367 189.528 L 396.367 211.598 C 396.367 212.603 397.181 213.417 398.186 213.417 Z " fill="rgb(206,207,214)"/><path d=" M 435.424 190.09 L 445.174 190.09 C 445.718 190.09 446.157 189.65 446.157 189.109 L 446.157 188.691 C 446.157 188.148 445.718 187.709 445.174 187.709 L 435.424 187.709 C 434.882 187.709 434.442 188.148 434.442 188.691 L 434.442 189.109 C 434.442 189.65 434.882 190.09 435.424 190.09 Z " fill="rgb(206,207,214)"/><path d=" M 436.471 214.074 L 444.128 214.074 C 445.248 214.074 446.157 213.166 446.157 212.045 L 446.157 193.716 C 446.157 192.595 445.248 191.687 444.128 191.687 L 436.471 191.687 C 435.351 191.687 434.442 192.595 434.442 193.716 L 434.442 212.045 C 434.442 213.166 435.351 214.074 436.471 214.074 Z " fill="rgb(206,207,214)"/><path d=" M 419.166 218.403 C 419.166 219.434 420.001 220.268 421.031 220.268 C 422.06 220.268 422.895 219.434 422.895 218.403 C 422.895 217.374 422.06 216.54 421.031 216.54 C 420.001 216.54 419.166 217.374 419.166 218.403 Z " fill="rgb(92,85,82)"/><path d=" M 409.066 232.401 L 409.066 231.676 C 409.066 231.676 410.086 227.163 417.301 227.163 C 424.515 227.163 424.37 232.401 424.37 232.401 L 409.066 232.401" fill="rgb(46,67,110)"/><path d=" M 424.458 227.834 C 424.458 227.834 422.889 227.712 422.315 227.366 C 421.742 227.019 418.305 224.709 417.499 225.078 C 416.692 225.448 411.321 227.093 411.508 227.879 C 411.695 228.664 412.191 228.588 412.57 228.449 C 412.949 228.31 416.849 227.492 417.193 227.63 C 417.193 227.63 413.362 229.027 413.348 230.047 C 413.331 231.067 414.149 231.314 414.512 231.7 C 414.875 232.085 415.311 233.043 416.299 233.116 C 417.285 233.19 422.102 231.515 423.093 231.438 C 424.084 231.361 425.92 231.499 426.045 231.337 C 426.17 231.176 424.458 227.834 424.458 227.834 Z " fill="rgb(238,168,134)"/><path d=" M 452.99 201.568 C 457.988 200.69 463.248 199.429 463.248 199.429 L 472.555 199.05 C 472.555 199.05 481.097 200.93 484.461 202.449 C 484.78 202.593 484.781 210.07 485.657 212.03 L 482.869 217.914 C 482.869 217.914 481.257 229.569 480.922 234.753 C 480.769 237.132 481.357 257.751 481.357 257.751 C 481.357 257.751 480.52 258.163 474.169 258.863 C 467.817 259.563 451.946 258.61 451.846 257.861 C 451.746 257.11 454.92 229.925 455.06 228.516 C 455.276 226.356 454.436 216.372 454.436 216.372 C 453.239 217.979 450.189 225.239 447.008 228.693 C 445.138 230.725 435.874 231.971 434.128 232.03 C 430.328 232.156 423.395 232.913 423.192 232.543 C 423.031 232.321 422.588 226.389 423.022 226.244 C 423.403 226.117 436.277 225.376 439.576 223.626 C 440.783 222.986 444.39 215.12 444.39 215.12 C 444.39 215.12 450.234 202.807 452.99 201.568" fill="rgb(255,192,92)"/><path d=" M 471.333 257.155 L 486.957 257.155 C 490.08 257.155 492.615 254.621 492.615 251.497 L 492.615 225.501 C 492.615 222.377 490.08 219.843 486.957 219.843 L 471.333 219.843 C 468.207 219.843 465.675 222.377 465.675 225.501 L 465.675 251.497 C 465.675 254.621 468.207 257.155 471.333 257.155 Z " fill="rgb(226,210,202)"/><path d=" M 470.448 265.819 C 474.419 265.819 477.64 264.485 480.024 261.854 C 485.41 255.909 484.441 245.456 484.398 245.014 C 484.316 244.19 483.581 243.588 482.758 243.67 C 481.935 243.752 481.333 244.485 481.414 245.31 C 481.426 245.429 482.285 254.902 477.796 259.848 C 475.982 261.849 473.577 262.821 470.448 262.821 C 469.62 262.821 468.949 263.492 468.949 264.32 C 468.949 265.148 469.62 265.819 470.448 265.819" fill="rgb(226,210,202)"/><path d=" M 421.804 196.373 C 421.804 198.217 421.14 199.905 420.04 201.214 C 419.782 201.519 419.501 201.805 419.199 202.066 C 419.113 202.141 419.025 202.214 418.935 202.284 C 418.833 202.364 418.731 202.441 418.626 202.517 C 417.634 203.218 416.467 203.687 415.204 203.841 C 414.981 203.868 414.755 203.885 414.526 203.893 C 414.445 203.896 414.362 203.897 414.28 203.897 C 414.037 203.897 413.796 203.885 413.558 203.863 C 413.292 203.838 413.032 203.798 412.775 203.747 C 411.636 203.515 410.59 203.026 409.699 202.343 C 409.432 202.137 409.178 201.914 408.941 201.674 C 408.895 201.628 408.849 201.581 408.804 201.532 C 408.636 201.354 408.475 201.168 408.326 200.973 C 407.342 199.702 406.756 198.107 406.756 196.373 C 406.756 192.219 410.124 188.85 414.28 188.85 C 418.435 188.85 421.804 192.219 421.804 196.373" fill="rgb(238,240,247)"/><path d=" M 419.18 200.525 L 418.626 202.517 C 417.634 203.218 416.467 203.687 415.204 203.841 C 414.981 203.868 414.755 203.885 414.526 203.893 C 414.445 203.896 414.362 203.897 414.28 203.897 C 414.037 203.897 413.796 203.885 413.558 203.863 C 413.292 203.838 413.032 203.798 412.775 203.747 C 411.636 203.515 410.59 203.026 409.699 202.343 C 409.594 201.685 409.479 200.956 409.379 200.275 C 409.932 200.068 411.692 199.47 412.803 199.095 C 412.818 199.089 412.834 199.085 412.848 199.08 C 412.873 199.071 412.897 199.063 412.921 199.055 C 412.987 199.033 413.05 199.012 413.109 198.991 C 413.17 198.97 413.228 198.951 413.282 198.932 C 413.51 198.856 413.67 198.802 413.727 198.783 C 413.727 198.783 413.728 198.782 413.729 198.782 C 413.743 198.778 413.751 198.774 413.751 198.774 L 413.764 198.775 L 415.257 198.887 L 415.508 198.906 L 415.586 198.912 C 415.586 198.912 415.597 198.915 415.621 198.921 C 415.71 198.944 415.972 199.012 416.318 199.118 C 416.319 199.118 416.32 199.119 416.32 199.119 C 417.205 199.389 418.639 199.903 419.18 200.525" fill="rgb(217,199,193)"/><path d=" M 414.672 192.638 C 414.672 192.638 416.463 192.94 416.159 195.745 C 415.855 198.548 414.274 198.301 414.167 198.298 C 414.063 198.293 412.578 198.331 412.499 194.902 C 412.499 194.902 412.477 192.367 414.672 192.638 Z " fill="rgb(238,169,135)"/><path d=" M 415.456 197.484 C 415.456 197.484 415.395 198.638 415.503 198.89 C 415.613 199.141 414.065 199.935 413.104 199.03 C 413.104 199.03 413.298 197.768 413.237 197.324 C 413.177 196.878 415.456 197.484 415.456 197.484" fill="rgb(238,169,135)"/><path d=" M 416.195 194.952 C 416.195 194.952 416.394 194.744 416.464 194.957 C 416.533 195.17 416.146 196.116 416.17 196.159 C 416.17 196.159 416.134 196.24 416.087 196.194 C 416.04 196.149 416.195 194.952 416.195 194.952" fill="rgb(238,169,135)"/><path d=" M 412.52 194.877 C 412.52 194.877 412.33 194.66 412.252 194.871 C 412.174 195.081 412.46 196.025 412.495 196.083 C 412.495 196.083 412.557 196.18 412.606 196.136 C 412.654 196.092 412.52 194.877 412.52 194.877" fill="rgb(238,169,135)"/><path d=" M 416.309 194.714 C 416.247 195.097 416.19 195.382 416.19 195.382 L 415.929 195.723 C 415.929 195.723 415.945 194.971 415.904 194.852 C 415.89 194.807 415.872 194.727 415.853 194.642 C 415.823 194.499 415.793 194.34 415.772 194.286 C 415.739 194.201 414.236 193.763 412.9 194.378 C 412.9 194.378 412.91 194.494 412.91 194.623 C 412.909 194.774 412.893 194.942 412.824 194.967 C 412.696 195.014 412.749 195.848 412.749 195.848 L 412.541 195.607 C 412.541 195.607 412.481 195.172 412.421 194.671 C 412.421 194.671 412.421 194.67 412.421 194.667 C 412.408 194.551 412.394 194.43 412.38 194.311 C 412.351 193.808 412.401 192.893 413.056 192.355 C 413.499 192.166 414.205 192.005 415.383 192.366 C 415.383 192.366 415.654 192.383 415.729 192.457 C 416.463 193.264 416.309 194.714 416.309 194.714" fill="rgb(232,115,77)"/><path d=" M 413.36 197.923 C 413.36 197.923 413.647 198.319 414.31 198.305 C 414.975 198.289 415.264 197.943 415.264 197.943 C 415.264 197.943 414.949 198.601 414.307 198.594 C 413.666 198.586 413.36 197.923 413.36 197.923" fill="rgb(199,141,113)"/><path d=" M 412.921 199.055 C 412.921 199.055 413.401 199.891 414.312 199.969 C 414.89 200.019 415.39 199.287 415.624 198.928 C 415.624 198.928 414.33 198.374 412.921 199.055 Z " fill="rgb(238,169,135)"/><path d=" M 415.458 198.663 C 415.458 198.663 415.092 199.142 414.312 199.656 L 414.797 200.403 L 415.624 198.928 L 415.458 198.663" fill="rgb(237,218,211)"/><path d=" M 413.14 198.774 C 413.14 198.774 413.607 199.358 414.312 199.656 L 413.779 200.426 L 412.848 199.079 L 413.14 198.774" fill="rgb(237,218,211)"/><path d=" M 414.312 199.656 L 414.728 200.288 C 414.728 200.288 414.292 200.536 413.885 200.273 L 414.312 199.656 Z " fill="rgb(80,115,171)"/><path d=" M 419.661 200.408 C 419.654 200.433 419.207 202.04 419.199 202.066 C 419.113 202.141 419.025 202.214 418.935 202.284 C 418.833 202.364 418.731 202.441 418.626 202.517 C 417.634 203.218 416.467 203.687 415.204 203.841 C 415.315 201.236 415.624 198.928 415.624 198.928 C 415.869 198.991 416.1 199.055 416.318 199.118 C 416.319 199.118 416.32 199.119 416.32 199.119 C 417.117 199.348 418.946 199.938 419.661 200.408" fill="rgb(50,54,87)"/><path d=" M 412.775 203.747 C 411.636 203.515 410.59 203.026 409.699 202.343 C 409.432 202.137 409.178 201.914 408.941 201.674 C 408.895 201.628 408.849 201.581 408.804 201.532 C 408.672 200.973 408.585 200.609 408.579 200.585 L 408.579 200.583 C 408.579 200.583 409.509 199.971 412.803 199.092 C 412.803 199.092 412.803 199.093 412.803 199.095 C 412.803 199.17 412.805 201.283 412.775 203.747 Z " fill="rgb(50,54,87)"/><path d=" M 414.551 200.358 C 414.52 201.043 414.517 202.375 414.526 203.893 C 414.445 203.896 414.362 203.897 414.28 203.897 C 414.037 203.897 413.796 203.885 413.558 203.863 C 413.704 201.99 413.947 200.819 414.058 200.356 C 414.095 200.204 414.117 200.128 414.117 200.128 L 414.558 200.201 C 414.555 200.25 414.553 200.302 414.551 200.358 Z " fill="rgb(80,115,171)"/><path d=" M 420.04 201.214 C 419.782 201.519 419.501 201.805 419.199 202.066 C 419.113 202.141 419.025 202.214 418.935 202.284 C 418.935 202.283 419.66 200.409 419.661 200.408 C 419.85 200.515 419.958 201.014 420.04 201.214" fill="rgb(50,54,87)"/><path d=" M 408.941 201.674 C 408.895 201.628 408.849 201.581 408.804 201.532 C 408.636 201.354 408.475 201.168 408.326 200.973 C 408.411 200.771 408.496 200.634 408.579 200.583 L 408.579 200.585 L 408.941 201.674 Z " fill="rgb(50,54,87)"/><path d=" M 381.981 185.606 C 381.471 185.606 381.058 185.193 381.058 184.683 L 381.058 171.917 C 381.058 171.408 381.471 170.995 381.981 170.995 C 382.491 170.995 382.904 171.408 382.904 171.917 L 382.904 184.683 C 382.904 185.193 382.491 185.606 381.981 185.606" fill="rgb(148,148,148)"/><path d=" M 388.364 179.223 L 375.598 179.223 C 375.088 179.223 374.675 178.81 374.675 178.3 C 374.675 177.79 375.088 177.377 375.598 177.377 L 388.364 177.377 C 388.874 177.377 389.286 177.79 389.286 178.3 C 389.286 178.81 388.874 179.223 388.364 179.223 Z " fill="rgb(148,148,148)"/></g></g></g></g></g></g></svg>